<svg xmlns="http://www.w3.org/2000/svg" width="32" height="32" viewBox="0 0 8.467 8.467"><path d="m 6.8786368,0.66093885 c -0.581369,0 -1.058333,0.47748305 -1.058333,1.05885195 0,0.0297 0.0063,0.05771 0.0088,0.08682 l -3.534147,1.514636 c -0.188214,-0.170323 -0.43488,-0.276984 -0.706935,-0.276984 -0.581366,0 -1.05884895,0.474898 -1.05884895,1.056264 0,0.581369 0.47748295,1.058852 1.05884895,1.058852 0.268946,0 0.512781,-0.105529 0.700217,-0.272852 l 2.750736,1.748214 c -0.004,0.03736 -0.01138,0.07376 -0.01138,0.1121381 0,0.581366 0.476967,1.0588489 1.058333,1.0588489 0.581369,0 1.058852,-0.477483 1.058852,-1.0588489 0,-0.581369 -0.477483,-1.0583331 -1.058852,-1.0583331 -0.350917,0 -0.661744,0.17562 -0.854729,0.441317 l -2.647899,-1.684137 c 0.03815,-0.108836 0.06304,-0.223909 0.06304,-0.345199 0,-0.115562 -0.0236,-0.224898 -0.05839,-0.329179 l 3.413228,-1.462958 c 0.190744,0.282814 0.513292,0.4697391 0.877467,0.4697391 0.581366,0 1.058849,-0.4769671 1.058849,-1.0583331 0,-0.5813689 -0.477483,-1.05885195 -1.058849,-1.05885195 z m 0,0.52968495 c 0.295383,0 0.529683,0.233781 0.529683,0.529167 0,0.295383 -0.2343,0.529166 -0.529683,0.529166 -0.295386,0 -0.529167,-0.233783 -0.529167,-0.529166 0,-0.2953859 0.233781,-0.529167 0.529167,-0.529167 z m -5.290635,2.3828 c 0.295386,0 0.529167,0.231715 0.529167,0.527098 0,0.295386 -0.233781,0.529167 -0.529167,0.529167 -0.295383,0 -0.529167,-0.2337809 -0.529167,-0.529167 0,-0.295383 0.233784,-0.527098 0.529167,-0.527098 z m 4.497917,2.644283 c 0.295386,0 0.529166,0.233781 0.529166,0.529167 0,0.295384 -0.23378,0.5296831 -0.529166,0.5296831 -0.295384,0 -0.529167,-0.234299 -0.529167,-0.5296831 0,-0.2953859 0.233783,-0.529167 0.529167,-0.529167 z" color="#000" font-family="sans-serif" font-weight="400" overflow="visible" paint-order="markers fill stroke" white-space="normal" style="line-height:normal;font-variant-ligatures:normal;font-variant-position:normal;font-variant-caps:normal;font-variant-numeric:normal;font-variant-alternates:normal;font-feature-settings:normal;text-indent:0;text-align:start;text-decoration-line:none;text-decoration-style:solid;text-decoration-color:#000;text-transform:none;text-orientation:mixed;shape-padding:0;isolation:auto;mix-blend-mode:normal"/></svg>